<svg width="13" height="17" viewBox="0 0 13 17" fill="none" xmlns="http://www.w3.org/2000/svg">
<g clip-path="url(#clip0_7_7)">
<path d="M7.48334 4.81247V0.633301H1.33751C0.928808 0.633301 0.600006 0.962103 0.600006 1.3708V15.6291C0.600006 16.0378 0.928808 16.3666 1.33751 16.3666H11.6625C12.0712 16.3666 12.4 16.0378 12.4 15.6291V5.54997H8.22084C7.81521 5.54997 7.48334 5.21809 7.48334 4.81247ZM9.83258 11.3074L6.86968 14.2482C6.66533 14.4513 6.3353 14.4513 6.13095 14.2482L3.16804 11.3074C2.85614 10.9979 3.07493 10.4666 3.51375 10.4666H5.51667V8.0083C5.51667 7.73665 5.73669 7.51663 6.00834 7.51663H6.99167C7.26332 7.51663 7.48334 7.73665 7.48334 8.0083V10.4666H9.48627C9.92508 10.4666 10.1439 10.9979 9.83258 11.3074ZM12.1849 3.85986L9.17652 0.848405C9.03824 0.710124 8.85079 0.633301 8.65412 0.633301H8.46667V4.56663H12.4V4.37919C12.4 4.18559 12.3232 3.99814 12.1849 3.85986Z" fill="#50B848"/>
</g>
<defs>
<clipPath id="clip0_7_7">
<rect width="11.8" height="15.7333" fill="white" transform="translate(0.600006 0.633301)"/>
</clipPath>
</defs>
</svg>